<?xml version="1.0" standalone="no"?>
<!DOCTYPE svg PUBLIC "-//W3C//DTD SVG 20010904//EN"
 "http://www.w3.org/TR/2001/REC-SVG-20010904/DTD/svg10.dtd">
<svg version="1.0" xmlns="http://www.w3.org/2000/svg"
 width="512.000000pt" height="512.000000pt" viewBox="0 0 512.000000 512.000000"
 preserveAspectRatio="xMidYMid meet">

<g transform="translate(0.000000,512.000000) scale(0.100000,-0.100000)"
fill="#000000" stroke="none">
<path d="M630 4672 c-28 -11 -68 -40 -105 -77 -105 -105 -95 109 -95 -2031 0
-2109 -7 -1931 78 -2026 25 -27 68 -61 96 -76 l51 -27 1905 0 1905 0 50 27
c60 32 114 87 146 148 l24 45 0 1905 0 1905 -27 51 c-15 28 -49 71 -76 96 -95
85 84 78 -2031 77 -1728 0 -1880 -2 -1921 -17z m3817 -225 l28 -27 3 -235 3
-235 -1921 0 -1921 0 3 234 c3 218 4 236 23 256 11 12 29 26 40 31 11 4 851 7
1867 6 l1848 -2 27 -28z m31 -2232 l-3 -1515 -28 -27 -27 -28 -1860 0 -1860 0
-27 28 -28 27 -3 1515 -2 1515 1920 0 1920 0 -2 -1515z"/>
<path d="M1134 3296 c-66 -29 -64 -17 -64 -474 l0 -414 29 -29 29 -29 516 0
c349 0 523 3 539 11 56 26 57 32 57 464 0 441 0 444 -65 471 -49 20 -994 20
-1041 0z m896 -471 l0 -265 -375 0 -375 0 0 265 0 265 375 0 375 0 0 -265z"/>
<path d="M2623 3295 c-33 -14 -63 -59 -63 -95 0 -37 30 -81 65 -96 50 -21
1309 -21 1359 0 43 18 66 51 66 96 0 45 -23 78 -66 96 -49 21 -1314 20 -1361
-1z"/>
<path d="M2630 2553 c-81 -30 -90 -157 -14 -192 18 -8 224 -11 700 -11 l676 0
29 29 c48 49 34 142 -26 169 -19 9 -195 12 -688 11 -364 0 -669 -3 -677 -6z"/>
<path d="M1118 1903 c-56 -35 -66 -117 -19 -164 l29 -29 1432 0 1432 0 29 29
c32 32 38 79 17 126 -26 58 56 55 -1480 55 -1298 -1 -1415 -2 -1440 -17z"/>
<path d="M1118 1263 c-56 -35 -66 -117 -19 -164 l29 -29 735 0 c721 0 735 0
760 20 38 30 52 80 33 123 -29 70 5 67 -793 67 -651 -1 -720 -2 -745 -17z"/>
</g>
</svg>
